<svg xmlns="http://www.w3.org/2000/svg" xmlns:xlink="http://www.w3.org/1999/xlink" width="265" height="35" version="1.1" viewBox="0 0 265 35"><title>header</title><desc>Created with Sketch.</desc><defs><linearGradient id="linearGradient-1" x1="0%" x2="100%" y1="50%" y2="50%"><stop offset="0%" stop-color="#923967"/><stop offset="15%" stop-color="#9B4568"/><stop offset="41%" stop-color="#B4656C"/><stop offset="76%" stop-color="#DB9872"/><stop offset="100%" stop-color="#F9C077"/></linearGradient><linearGradient id="linearGradient-2" x1="-9.473%" x2="125.499%" y1="-7.793%" y2="123.327%"><stop offset="0%" stop-color="#923967"/><stop offset="100%" stop-color="#191F54"/></linearGradient><linearGradient id="linearGradient-3" x1="-9.765%" x2="127.016%" y1="94.373%" y2="15.569%"><stop offset="0%" stop-color="#2E99E6"/><stop offset="14%" stop-color="#2E96E2"/><stop offset="28%" stop-color="#2D8CD5"/><stop offset="43%" stop-color="#2C7DC1"/><stop offset="57%" stop-color="#2B66A4"/><stop offset="72%" stop-color="#2A4A7F"/><stop offset="85%" stop-color="#282C57"/></linearGradient><linearGradient id="linearGradient-4" x1="1%" x2="3%" y1="2%" y2="1%"><stop offset="0%" stop-color="#4E85BC"/><stop offset="27%" stop-color="#4D83B9"/><stop offset="44%" stop-color="#4A7BB1"/><stop offset="58%" stop-color="#456FA3"/><stop offset="70%" stop-color="#3D5D8F"/><stop offset="81%" stop-color="#334675"/><stop offset="90%" stop-color="#282C57"/></linearGradient><linearGradient id="linearGradient-5" x1="0%" x2="100%" y1="50%" y2="50%"><stop offset="0%" stop-color="#9C5C7D"/><stop offset="18%" stop-color="#A7687F"/><stop offset="50%" stop-color="#C38885"/><stop offset="93%" stop-color="#F0BB8D"/><stop offset="100%" stop-color="#F8C58F"/></linearGradient><linearGradient id="linearGradient-6" x1="50%" x2="50%" y1="100%" y2="0%"><stop offset="0%" stop-color="#2D4570"/><stop offset="100%" stop-color="#9C5C7D"/></linearGradient></defs><g id="Page-1" fill="none" fill-rule="evenodd" stroke="none" stroke-width="1"><g id="Buidler-Web-v1" fill-rule="nonzero" transform="translate(-26.000000, -20.000000)"><g id="header"><g id="Group-3" transform="translate(26.000000, 20.000000)"><g id="nomic-color-horizontal-reverse" transform="translate(116.000000, 6.000000)"><g id="Group" fill="#FFF" transform="translate(101.000000, 6.000000)"><polygon id="Shape" points=".174 .498 1.723 .498 1.723 11.145 7.248 11.145 7.248 12.483 .174 12.483"/><polygon id="Shape" points="15.775 .498 14.759 .498 9.723 12.486 11.245 12.486 12.255 10.077 12.292 9.988 13.181 7.832 13.181 7.832 13.553 6.938 13.677 6.636 15.226 2.895 16.732 6.49 16.732 6.49 18.226 10.077 18.21 10.077 19.221 12.486 20.819 12.486"/><path id="Shape" d="M24.3921127,0.497804878 L28.2591549,0.497804878 C30.6419718,0.497804878 31.6676056,1.91512195 31.6676056,3.63365854 C31.6143314,4.56759413 31.1607238,5.42978671 30.428169,5.9895122 C31.5653802,6.52237147 32.2925924,7.68695509 32.2873239,8.96682927 C32.2873239,10.9041463 31.1346479,12.4831707 28.4605634,12.4831707 L24.3921127,12.4831707 L24.3921127,0.497804878 Z M28.2591549,5.4504878 C29.7216901,5.4504878 30.1709859,4.55317073 30.1709859,3.63365854 C30.1709859,2.71414634 29.7216901,1.83585366 28.2591549,1.83585366 L25.9538028,1.83585366 L25.9538028,5.4504878 L28.2591549,5.4504878 Z M28.4543662,11.1578049 C30.2112676,11.1578049 30.7380282,10.0797561 30.7380282,8.9795122 C30.7380282,7.87926829 30.2112676,6.80439024 28.4543662,6.80439024 L25.9538028,6.80439024 L25.9538028,11.145122 L28.4543662,11.1578049 Z"/><path id="Shape" d="M35.9746479,11.2846341 L36.3278873,9.80707317 C37.2303189,10.8443574 38.5216981,11.4393534 39.8788732,11.4431707 C41.2670423,11.4431707 42.3391549,10.6473171 42.3391549,9.34731707 C42.3391549,8.1297561 41.7535211,7.44487805 39.5690141,6.84878049 C37.384507,6.25268293 36.3061972,5.03195122 36.3061972,3.36097561 C36.3061972,1.69 37.6757746,0.244146341 40.0740845,0.244146341 C41.2233904,0.244804738 42.3409497,0.630080261 43.256338,1.34121951 L42.9061972,2.6095122 C42.0837824,1.98050155 41.0990601,1.61228001 40.0740845,1.5504878 C38.6115493,1.5504878 37.771831,2.25121951 37.771831,3.3704878 C37.771831,4.2297561 38.2985915,4.95585366 40.1329577,5.44731707 C42.6521127,6.12585366 43.8047887,7.24512195 43.8047887,9.22365854 C43.8047887,11.5604878 41.8898592,12.7590244 39.8788732,12.7590244 C37.9670423,12.7431707 36.6191549,11.9631707 35.9746479,11.2846341 Z"/></g><g id="Group" fill="#FFF" transform="translate(28.000000, 6.000000)"><polygon id="Shape" points=".135 12.61 1.981 12.61 1.981 2.261 6.877 2.261 6.877 12.61 8.723 12.61 8.723 .355 .135 .355"/><path id="Shape" d="M18.604717,0.107804878 C15.1964516,0.10955582 12.4347208,2.96795517 12.4358494,6.49260058 C12.436978,10.017246 15.2005388,12.8737532 18.6088045,12.8731699 C22.0170703,12.8725865 24.7797166,10.0151334 24.779717,6.4904878 C24.7763343,2.96564144 22.0131782,0.109552446 18.604717,0.107804878 Z M22.9707547,6.4904878 C22.9707547,8.9841208 21.016013,11.0056098 18.604717,11.0056098 C16.1934209,11.0056098 14.2386792,8.9841208 14.2386792,6.4904878 C14.2386792,3.99685481 16.1934209,1.97536585 18.604717,1.97536585 C21.0146126,1.97885876 22.9673771,3.99830305 22.9707547,6.4904878 Z"/><polygon id="Shape" points="28.735 12.62 30.581 12.62 30.581 2.27 34.784 2.27 34.784 12.62 36.63 12.62 36.63 2.27 40.833 2.27 40.833 12.62 42.679 12.62 42.679 .365 28.735 .365"/><path id="Shape" d="M63.1787736,9.45195122 C61.987844,10.8417109 60.0893969,11.3239796 58.4113542,10.6630344 C56.7333116,10.0020892 55.6261132,8.33596076 55.630935,6.47901854 C55.6357568,4.62207632 56.7515917,2.96212121 58.4330426,2.31050523 C60.1144934,1.65888925 62.0104087,2.15169486 63.1941038,3.54804878 L63.3259434,3.70658537 L64.8283019,2.67292683 L64.6658019,2.47 C63.0271046,0.414698614 60.3180721,-0.357178307 57.8927253,0.540166566 C55.4673785,1.43751144 53.8466265,3.81134895 53.8405489,6.47519437 C53.8344713,9.13903979 55.4443735,11.52076 57.8655987,12.4299305 C60.2868239,13.3391009 62.9993483,12.5804525 64.6474057,10.5331707 L64.8099057,10.3302439 L63.3106132,9.29658537 L63.1787736,9.45195122 Z"/><rect id="Rectangle-path" width="1.846" height="12.255" x="48.002" y=".365"/></g><g id="nomic_iso-link"><g id="nomic_iso"><g id="Group"><polygon id="Shape" fill="url(#linearGradient-1)" points="10.303 0 .018 5.969 10.303 11.926 20.603 5.969"/><polygon id="Shape" fill="url(#linearGradient-2)" points=".018 5.969 0 17.892 10.303 23.855 10.303 11.926"/><g id="Shape" transform="translate(11.969309, 8.000000)"><polygon fill="url(#linearGradient-3)" points="7.083 8.997 .147 13.012 .147 14.806 8.633 9.892 8.633 .043 7.086 .938"/><polygon fill="url(#linearGradient-4)" points="8.627 .048 8.641 .055 8.641 .034"/></g><polygon id="Shape" fill="url(#linearGradient-5)" points="10.306 .006 .031 5.969 10.306 11.92 20.596 5.969"/><polygon id="Shape" fill="url(#linearGradient-6)" points=".031 5.969 .012 17.88 10.306 23.837 10.306 11.92"/></g></g></g></g><g id="logo_buidlerbynomic_gris-v4" transform="translate(3.000000, 5.000000)"><path id="Shape" fill="#F9C838" d="M3.43,14.56 C3.43,15.74 4.2,16.61 5.89,16.61 C7.58,16.61 8.38,15.74 8.38,14.56 L8.38,10.85 C8.38,9.51 7.84,8.77 6.81,8.77 C6.50637587,8.77214691 6.20536057,8.82626202 5.92,8.93 L3.43,10 L3.43,14.56 Z M0.82,0.34 L3.43,0.34 L3.43,8.34 L6.22,6.24 C6.45336075,6.16952488 6.69626604,6.13578803 6.94,6.14 C9.71,6.11 11,7.75 11,10 L11,14.66 C11,17.97 8.49,18.81 5.9,18.81 C3.31,18.81 0.82,18 0.82,14.66 L0.82,0.34 Z"/><path id="Shape" fill="#F9C838" d="M16.83,6.39 L16.83,14.07 C16.83,15.41 17.37,16.15 18.39,16.15 C18.6959923,16.147304 18.9996735,16.0966905 19.29,16 L21.77,15 L21.77,6.39 L24.39,6.39 L24.39,18.53 L21.77,18.53 L21.77,16.61 L19,18.71 C18.7667816,18.7811227 18.5237735,18.8148738 18.28,18.81 C15.52,18.81 14.28,17.18 14.28,14.92 L14.28,6.39 L16.83,6.39 Z"/><path id="Shape" fill="#F9C838" d="M28.66,18.53 L28.66,6.39 L31.28,6.39 L31.28,18.53 L28.66,18.53 Z M28.66,3.7 L28.66,0.34 L31.28,0.34 L31.28,3.7 L28.66,3.7 Z"/><path id="Shape" fill="#F9C838" d="M43.09,8.9 C42.2956914,8.5831538 41.4542038,8.40066253 40.6,8.36 C39.06,8.36 38.14,8.87 38.14,10.41 L38.14,14.05 C38.14,15.41 38.68,16.15 39.7,16.15 C40.0059923,16.147304 40.3096735,16.0966905 40.6,16 L43.09,15 L43.09,8.9 Z M43.09,18.53 L43.09,16.61 L40.29,18.71 C40.0600522,18.780407 39.8204493,18.8141539 39.58,18.81 C36.81,18.81 35.58,17.18 35.58,14.92 L35.58,10.33 C35.58,7.67 37.06,6.11 40.29,6.11 C41.2673913,6.07526518 42.2404382,6.25621776 43.14,6.64 L43.14,0.34 L45.7,0.34 L45.7,18.53 L43.09,18.53 Z"/><rect id="Rectangle-path" width="2.61" height="18.19" x="49.98" y=".34" fill="#F9C838"/><path id="Shape" fill="#F9C838" d="M64.91,11.41 L64.91,10.23 C64.91,9.23 64.58,8.31 62.48,8.31 C60.66,8.31 59.99,8.98 59.99,10.31 L59.99,11.44 L64.91,11.41 Z M67.53,10.41 L67.53,13.53 L60,13.53 L60,14.22 C60,16.17 61.34,16.58 63.23,16.58 C64.5343768,16.5634822 65.8366415,16.4699862 67.13,16.3 L67.13,18.55 C65.7710788,18.7343876 64.401372,18.8279286 63.03,18.83 C60.26,18.83 57.39,17.83 57.39,14.22 L57.39,10.39 C57.39,7.87 58.67,6.11 62.49,6.11 C66.31,6.11 67.53,7.87 67.53,10.39 L67.53,10.41 Z"/><path id="Shape" fill="#F9C838" d="M71.24,18.53 L71.24,6.39 L73.85,6.39 L73.85,9.21 L74,9.21 C74.5363815,7.44466286 76.1550895,6.23063185 78,6.21 L78,9 C76.1942818,9.01762498 74.5715068,10.1060237 73.87,11.77 L73.87,18.48 L71.24,18.53 Z"/><g id="Group" fill="#CCCDCE" transform="translate(87.000000, 6.000000)"><path id="Shape" d="M0.39,0.3 L1.66,0.3 L1.66,5.7 L3.77,4.23 C3.92594679,4.18436932 4.08751644,4.16080708 4.25,4.16 C4.98041012,4.06036457 5.71656036,4.29768081 6.25125408,4.80515375 C6.78594779,5.31262669 7.06136984,6.03538452 7,6.77 L7,9.89 C7,12.1 5.44,12.67 3.71,12.67 C1.98,12.67 0.43,12.1 0.43,9.89 L0.39,0.3 Z M1.66,9.92 C1.66,11.05 2.45,11.52 3.66,11.52 C4.87,11.52 5.66,11.05 5.66,9.92 L5.66,7.18 C5.66,6.18 5.25,5.43 4.33,5.43 C4.04894229,5.4389821 3.77293759,5.50713141 3.52,5.63 L1.63,6.68 L1.66,9.92 Z"/><polygon id="Shape" points="10.46 16.11 11.68 12.48 11.1 12.48 8.34 4.35 9.66 4.35 11.96 11.35 12.13 11.35 14.43 4.35 15.75 4.35 11.75 16.11"/></g></g></g></g></g></g></svg>